<?xml version="1.0" encoding="UTF-8" standalone="no"?>
<!-- Created with Inkscape (http://www.inkscape.org/) -->

<svg
   width="350"
   height="350"
   viewBox="0 0 92.604163 92.604167"
   version="1.1"
   id="svg1"
   xml:space="preserve"
   inkscape:version="1.3 (0e150ed6c4, 2023-07-21)"
   sodipodi:docname="grace new logo.svg"
   inkscape:export-filename="Hydrangea_Gerbera_daisy_Alstroemeria_pink_Roses_flower_bag_sold.png"
   inkscape:export-xdpi="96"
   inkscape:export-ydpi="96"
   xmlns:inkscape="http://www.inkscape.org/namespaces/inkscape"
   xmlns:sodipodi="http://sodipodi.sourceforge.net/DTD/sodipodi-0.dtd"
   xmlns="http://www.w3.org/2000/svg"
   xmlns:svg="http://www.w3.org/2000/svg"><sodipodi:namedview
     id="namedview1"
     pagecolor="#ffffff"
     bordercolor="#000000"
     borderopacity="0.25"
     inkscape:showpageshadow="2"
     inkscape:pageopacity="0.0"
     inkscape:pagecheckerboard="0"
     inkscape:deskcolor="#d1d1d1"
     inkscape:document-units="mm"
     inkscape:zoom="1"
     inkscape:cx="267"
     inkscape:cy="184"
     inkscape:window-width="1920"
     inkscape:window-height="991"
     inkscape:window-x="-9"
     inkscape:window-y="-9"
     inkscape:window-maximized="1"
     inkscape:current-layer="layer1" /><defs
     id="defs1" /><g
     inkscape:label="Layer 1"
     inkscape:groupmode="layer"
     id="layer1"><rect
       style="fill:#91c1cd;fill-opacity:1;stroke-width:0.1;stroke-linecap:square"
       id="rect1"
       width="89.802559"
       height="89.802559"
       x="0.93544334"
       y="1.4008039" /><path
       id="path2-4"
       style="font-size:35.8129px;line-height:1;font-family:'Yu Gothic UI';-inkscape-font-specification:'Yu Gothic UI';text-align:center;letter-spacing:11.9062px;text-anchor:middle;fill:#32120e;fill-opacity:1;stroke-width:4.31138;stroke-linecap:square;stroke-linejoin:bevel"
       d="m 24.683437,62.818345 c -1.279321,0 -2.336864,0.423719 -3.172596,1.271331 -0.831755,0.843634 -1.247623,1.924955 -1.247623,3.243893 0,1.291218 0.37421,2.329031 1.122787,3.113265 0.752555,0.784253 1.73683,1.176344 2.952791,1.176344 0.986176,0 1.884692,-0.222841 2.701723,-0.652596 v 0.796394 h 0.945652 v -4.666209 c 7e-5,-0.04274 2.62e-4,-0.01745 -1.74e-4,-0.06402 h -3.658959 v 0.902965 h 2.635171 l 0.01744,2.101794 c -0.487166,0.265371 -1.849995,0.684729 -2.515412,0.684729 -0.970407,0 -1.738732,-0.307135 -2.305097,-0.921055 -0.566418,-0.61788 -0.849635,-1.465492 -0.849635,-2.542818 0,-1.045664 0.304971,-1.897131 0.914931,-2.554611 0.60996,-0.657498 1.392154,-0.986368 2.34672,-0.986368 0.942652,0 1.758636,0.217973 2.447831,0.653659 v -1.105063 c -0.62976,-0.301029 -1.408116,-0.451561 -2.334962,-0.451561 z m 35.353881,0 c -1.259555,0 -2.2992,0.419881 -3.119092,1.259573 -0.819875,0.839692 -1.229882,1.940708 -1.229882,3.30324 0,1.267441 0.364511,2.291368 1.093289,3.07166 0.728777,0.780275 1.699201,1.17036 2.911201,1.17036 0.938709,0 1.722891,-0.16625 2.352669,-0.498976 v -0.96847 c -0.6258,0.380246 -1.366527,0.570447 -2.222059,0.570447 -0.922852,0 -1.66944,-0.307134 -2.239783,-0.921054 -0.5664,-0.617898 -0.849618,-1.445588 -0.849618,-2.483314 0,-1.093183 0.302965,-1.966561 0.90893,-2.620082 0.609978,-0.653537 1.404226,-0.980419 2.382552,-0.980419 0.736733,0 1.410018,0.170436 2.019978,0.5111 V 63.168796 C 61.514777,62.935104 60.845278,62.818345 60.037318,62.818345 Z M 33.214227,62.96087 v 8.519713 h 0.998127 v -3.624191 h 0.819926 c 0.186172,0 0.352614,0.0239 0.499186,0.07135 0.150549,0.04361 0.288992,0.114962 0.415746,0.214032 0.130662,0.09909 0.257504,0.227655 0.380298,0.386072 0.122812,0.154387 0.249567,0.34267 0.380281,0.564482 l 1.425823,2.388326 h 1.188293 l -1.598248,-2.56056 c -0.114787,-0.186154 -0.219753,-0.348601 -0.31481,-0.487218 -0.09106,-0.142524 -0.184288,-0.269383 -0.279345,-0.380298 -0.09507,-0.110949 -0.195906,-0.205919 -0.302861,-0.285137 -0.102924,-0.08321 -0.225771,-0.15648 -0.368331,-0.219805 v -0.0239 c 0.289132,-0.07519 0.548397,-0.180135 0.778146,-0.314792 0.233692,-0.138687 0.431726,-0.305076 0.594121,-0.499168 0.166249,-0.194075 0.293144,-0.41388 0.380298,-0.659452 0.09106,-0.249514 0.136594,-0.522858 0.136594,-0.819926 0,-0.380229 -0.06524,-0.710949 -0.195959,-0.992161 -0.130662,-0.285189 -0.313048,-0.522719 -0.546722,-0.712833 -0.229715,-0.190115 -0.502884,-0.330807 -0.819735,-0.421905 -0.312909,-0.09507 -0.655492,-0.142524 -1.027835,-0.142524 z m 13.604652,0 -3.267601,8.519713 h 1.111047 l 2.507179,-6.915499 c 0.05146,-0.138687 0.09699,-0.328819 0.136593,-0.57043 h 0.0239 c 0.04361,0.261411 0.08722,0.451613 0.130837,0.57043 l 2.566561,6.915499 h 1.105046 l -3.279568,-8.519696 z m 21.006689,0 v 8.519713 h 4.51538 v -0.902982 h -3.517254 v -6.713575 h 3.327122 V 62.96087 Z m -33.613214,0.903139 h 1.366492 c 0.558463,0 0.98438,0.128569 1.277489,0.38609 0.297051,0.253492 0.445594,0.607954 0.445594,1.063457 0,0.253492 -0.04361,0.483346 -0.130837,0.6893 -0.08705,0.202012 -0.20789,0.374297 -0.362382,0.516892 -0.154387,0.138686 -0.33864,0.245501 -0.552514,0.320776 -0.209932,0.07519 -0.439611,0.112869 -0.689125,0.112869 h -1.354752 z m 34.871181,2.833938 v 0.897016 h 2.817593 v -0.897016 z m -41.062945,7.38147 c -0.326446,0 -0.599773,0.121765 -0.820101,0.365191 -0.26661,0.29515 -0.399959,0.703901 -0.399959,1.226201 0,0.458381 0.103448,0.831056 0.310222,1.118059 0.227167,0.316921 0.530325,0.475269 0.909838,0.475269 0.325068,0 0.597818,-0.122987 0.818165,-0.369221 0.265249,-0.296511 0.397848,-0.70732 0.397848,-1.232359 0,-0.45566 -0.103274,-0.827009 -0.310066,-1.114013 -0.225789,-0.312839 -0.527847,-0.469127 -0.905947,-0.469127 z m 35.734459,0 c -0.326429,0 -0.599895,0.121765 -0.820258,0.365191 -0.266593,0.29515 -0.399802,0.703901 -0.399802,1.226201 0,0.458381 0.103274,0.831056 0.310065,1.118059 0.227167,0.316921 0.530534,0.475269 0.909995,0.475269 0.325085,0 0.597836,-0.122987 0.8182,-0.369221 0.265214,-0.296511 0.397813,-0.70732 0.397813,-1.232359 0,-0.45566 -0.103448,-0.827009 -0.310223,-1.114013 -0.225771,-0.312839 -0.527637,-0.469127 -0.90579,-0.469127 z m -43.212695,0.05495 v 3.074643 h 0.167296 v -1.556642 h 1.252717 V 75.501297 H 20.70965 v -1.216013 h 1.662863 v -0.151073 z m 3.352609,0 v 3.074643 h 1.783111 v -0.151072 h -1.611767 v -2.923657 z m 6.586646,0 0.722113,3.074643 h 0.226522 l 0.534598,-2.093194 c 0.04483,-0.171309 0.102053,-0.449572 0.171309,-0.834493 h 0.02861 c 0.04623,0.272035 0.106065,0.551537 0.17942,0.83854 l 0.526382,2.089147 h 0.22647 l 0.734412,-3.074643 h -0.183468 l -0.483537,2.089321 c -0.06524,0.28156 -0.119672,0.561062 -0.163284,0.838541 h -0.02861 c -0.05582,-0.319643 -0.114264,-0.600645 -0.175373,-0.842763 l -0.5264,-2.085116 h -0.226487 l -0.530429,2.085116 c -0.05844,0.229854 -0.117055,0.510874 -0.175547,0.842763 H 31.3097 c -0.05844,-0.329168 -0.11566,-0.61563 -0.171483,-0.859091 L 30.669089,74.13435 Z m 4.851979,0 v 3.074643 h 1.858595 v -0.151072 h -1.687268 v -1.411797 h 1.252716 v -0.151072 h -1.252716 v -1.209872 h 1.658833 v -0.151073 z m 3.393309,0 v 3.074643 h 0.171308 v -1.507656 h 0.761121 c 0.04361,0 0.101878,-0.0035 0.175373,-0.0087 l 0.742716,1.515908 h 0.19786 l -0.769198,-1.540226 c 0.212165,-0.04222 0.378048,-0.125254 0.497738,-0.248973 0.133279,-0.137466 0.199988,-0.310746 0.199988,-0.520224 0,-0.227133 -0.07135,-0.404652 -0.214188,-0.532505 -0.172705,-0.155085 -0.441373,-0.232715 -0.805884,-0.232715 z m 6.476342,0 -1.052729,3.074643 h 0.183677 l 0.359016,-1.065028 h 1.24061 l 0.356957,1.065028 h 0.187672 L 45.42976,74.134368 Z m 2.775131,0 v 3.074643 h 0.167297 v -2.08107 l -0.0087,-0.846617 h 0.02861 c 0.178199,0.331889 0.323009,0.59091 0.434552,0.777256 l 1.291514,2.150431 h 0.226487 v -3.074642 h -0.167296 v 2.009615 c 0,0.266593 0.01047,0.563191 0.02861,0.889637 h -0.02861 c -0.129267,-0.254346 -0.27542,-0.517537 -0.438635,-0.789555 L 48.24102,74.134351 Z m 3.962535,0 v 3.074643 h 0.810071 c 0.428463,0 0.772616,-0.112171 1.032388,-0.336582 0.31556,-0.272035 0.473349,-0.676634 0.473349,-1.213902 0,-0.470628 -0.114962,-0.835801 -0.344816,-1.09559 -0.251625,-0.285626 -0.621683,-0.428569 -1.109982,-0.428569 z m 6.088891,0 v 3.074643 h 0.167122 v -2.089147 l -0.0087,-0.83854 h 0.02861 c 0.09665,0.269314 0.199901,0.544699 0.310048,0.826242 l 0.82626,2.101445 h 0.222474 l 0.826259,-2.101445 c 0.100657,-0.254364 0.204106,-0.529732 0.310223,-0.826242 h 0.02861 l -0.0087,0.83854 v 2.089147 h 0.171309 v -3.074642 h -0.295796 l -0.820258,2.085099 c -0.09176,0.233954 -0.192975,0.514956 -0.303122,0.842763 h -0.03057 C 59.343314,76.743948 59.237824,76.459003 59.13715,76.207361 l -0.816054,-2.072993 z m 8.571664,0 v 3.074643 h 0.171483 v -1.507656 h 0.760946 c 0.04361,0 0.101878,-0.0035 0.175374,-0.0087 l 0.742663,1.515908 h 0.197877 l -0.769162,-1.540226 c 0.212182,-0.04222 0.378222,-0.125254 0.497912,-0.248973 0.133279,-0.137466 0.19997,-0.310746 0.19997,-0.520224 0,-0.227133 -0.07135,-0.404652 -0.214223,-0.532505 -0.172704,-0.155085 -0.441512,-0.232715 -0.806023,-0.232715 z m 3.601548,0 v 3.074643 h 1.85863 v -0.151072 h -1.687269 v -1.411797 h 1.252717 v -0.151072 h -1.252717 v -1.209872 h 1.658625 V 74.134124 Z M 28.02059,74.234502 c 0.285625,0 0.520224,0.109554 0.703866,0.328487 0.218985,0.259806 0.328504,0.627597 0.328504,1.103668 0,0.41756 -0.08496,0.754927 -0.254956,1.011995 -0.189033,0.287003 -0.448264,0.430504 -0.777432,0.430504 -0.285625,0 -0.520799,-0.110251 -0.705802,-0.330598 -0.220381,-0.263871 -0.330615,-0.634487 -0.330615,-1.111901 0,-0.414857 0.08565,-0.750723 0.25705,-1.007791 0.189033,-0.282921 0.448857,-0.424364 0.779367,-0.424364 z m 35.734459,0 c 0.285642,0 0.520276,0.109554 0.703866,0.328487 0.219003,0.259806 0.328522,0.627597 0.328522,1.103668 0,0.41756 -0.08513,0.754927 -0.255096,1.011995 -0.189086,0.287003 -0.448142,0.430504 -0.777292,0.430504 -0.285642,0 -0.520991,-0.110251 -0.705977,-0.330598 -0.220329,-0.263871 -0.330423,-0.634487 -0.330423,-1.111901 0,-0.414857 0.08565,-0.750723 0.257032,-1.007791 0.189068,-0.282921 0.448857,-0.424364 0.779368,-0.424364 z m -18.455759,0.04693 h 0.03053 c 0.09525,0.325086 0.182944,0.604588 0.263208,0.838541 l 0.291783,0.877338 h -1.144733 l 0.295865,-0.881385 c 0.10467,-0.304675 0.192609,-0.582869 0.263347,-0.834494 z m -6.40105,0.0035 h 0.773245 c 0.28156,0 0.490986,0.04483 0.628382,0.134675 0.149677,0.09926 0.22455,0.260452 0.22455,0.48352 0,0.433906 -0.292463,0.650851 -0.877355,0.650851 H 38.89824 Z m 13.214009,0 h 0.681571 c 0.855549,0 1.283298,0.45908 1.283298,1.377204 0,0.437971 -0.108158,0.775896 -0.324475,1.013931 -0.229871,0.254347 -0.566505,0.38152 -1.009919,0.38152 h -0.630475 z m 14.660747,0 h 0.773209 c 0.281561,0 0.491021,0.04483 0.628382,0.134675 0.149677,0.09926 0.224429,0.260452 0.224429,0.48352 0,0.433906 -0.292499,0.650851 -0.877373,0.650851 h -0.74863 z" /><path
       style="fill:#32120e;fill-opacity:1;stroke:#32120e;stroke-width:0.906127;stroke-linecap:round;stroke-linejoin:round;stroke-dasharray:none;stroke-opacity:1"
       d="m 58.808109,43.30135 c 0,0 0.649662,4.328775 1.299328,6.817839 0.649666,2.489061 0.649666,2.59728 0.649666,2.59728 -5.521762,3.058423 -10.635758,3.062655 -16.566444,3.35479 -4.114536,0.216474 -8.445633,-0.973977 -8.445633,-0.973977 0,0 0,-8.332968 0.108282,-12.661743 0.108282,-4.328824 -4.006265,-13.852138 -4.006265,-13.852138 0,0 6.7132,-0.649349 9.203577,-1.731564 2.490379,-1.08222 16.349882,-1.29863 16.349882,-1.29863 0,0 0.541391,13.202853 0.757946,14.068635 0.216542,0.865716 0.650359,3.687652 0.650359,3.687652"
       id="path15"
       sodipodi:nodetypes="cscccscscsc" /><ellipse
       style="fill:#f9f9f9;fill-opacity:1;stroke:none;stroke-width:0.906127;stroke-linecap:round;stroke-dasharray:none;stroke-opacity:1"
       id="ellipse17"
       cx="49.844929"
       cy="28.357704"
       rx="0.43943462"
       ry="0.44760245" /><path
       id="path9"
       style="fill:#ffffff;fill-opacity:1;stroke:none;stroke-width:2.26532;stroke-linecap:square"
       d="m 46.838643,33.258786 c -0.404074,0.155106 -0.614243,0.407138 -0.790945,0.675939 L 45.659355,33.77647 c -0.418395,-0.03008 -0.594888,0.181678 -0.834113,0.330761 l -0.129417,-0.71903 c -0.99501,0.293279 -1.862255,1.31062 -2.74692,2.229157 -0.27486,0.353761 -0.873269,0.583081 -0.704768,1.107373 -0.03511,0.769014 0.125703,1.432639 0.588625,1.933478 L 43.68354,39.4921 c 1.435063,0.220755 1.721617,1.040719 2.339031,1.688067 l 0.08685,0.05362 c 0.841887,-0.11578 0.569251,-1.396729 0.644018,-2.314504 0.515138,0.939554 1.094663,3.424062 1.506353,1.880807 l 0.03137,-0.0772 0.4746,-1.927147 c 0,0 1.037521,-0.966038 1.319802,-1.241546 -0.189517,0.234067 -0.557533,0.810114 -0.557533,0.810114 l -0.359513,0.834117 -0.408115,1.700373 c 0.23091,-0.219985 0.531577,-0.483516 0.892673,-0.636097 -0.07007,0.466871 -0.188973,0.883449 -0.349779,1.162011 l 1.116426,-0.816831 c 0,0 1.272767,-0.409947 1.330294,-0.453095 0.05754,-0.04311 0.999515,-0.625549 1.330297,-0.870029 0.618588,-0.530696 1.305847,-1.423884 1.193703,-2.243576 l -0.560932,0.186934 c -0.01993,0.06014 -1.179157,0.100263 -1.351876,-0.158164 -0.143847,-0.215228 -0.949197,-0.244509 -0.949197,-0.244509 0,0 -1.062371,0.531563 -1.211814,0.619868 0.0043,-0.0045 0.04517,-0.04236 0.04694,-0.0446 0.05754,-0.0719 0.172595,-1.596378 0.172595,-1.596378 0.16265,-0.08132 -0.287541,-1.395094 -0.517766,-1.423798 -0.131592,-0.01654 -0.848524,-0.431434 -0.848524,-0.431434 l -1.279962,-0.330761 z m -5.148664,5.79577 c 0,0 -0.733481,0.302064 -0.920442,0.359597 -0.186979,0.05752 -0.704657,0.575225 -0.891618,0.661522 -0.186979,0.08631 -0.4746,0.647186 -0.4746,0.647186 l 0.503354,0.129417 c 0,0 -0.388307,0.31642 -0.575271,0.31642 -0.186979,0 0.04316,0.517761 0.04316,0.517761 0,0 1.466899,0.560866 1.812059,0.733444 0.238889,0.119428 0.956087,0.100195 1.38599,0.07756 l -1.457907,0.742202 -1.294373,1.682639 0.287673,0.719103 0.373929,0.575266 -0.115101,0.359515 -0.575268,0.115101 c 0,0 -0.287635,0.158164 -0.575267,0.388266 -0.287636,0.230114 -0.02875,0.532187 -0.02875,0.604093 0,0.0719 0.733487,0.906002 0.819775,0.99229 0.08631,0.08631 0.83414,0.302038 1.049866,0.31642 0.215726,0.01427 1.280713,0.38087 1.280713,0.38087 0.462395,0.06058 1.078761,-0.158096 1.811385,-0.610958 0.488436,-0.02603 1.057414,-0.454822 1.625134,-0.877279 1.007593,-2.198386 0.794789,-4.761159 1.190155,-4.694515 l -0.08785,-0.07811 -1.313542,1.053409 -1.689581,1.403948 c 0.697265,-0.994123 1.700455,-1.927026 2.055362,-2.989612 -0.25795,-0.445837 -0.640612,-0.865014 -1.431871,-1.196577 0.82265,0.03867 1.70138,0.245717 2.639082,0.629527 l -0.984913,-0.643468 -0.06051,-0.0427 -0.474597,-0.215658 c 0,0 -0.647116,-0.302026 -0.920367,-0.546515 -0.273254,-0.244485 -1.107446,-0.791042 -1.308788,-0.934856 -0.201341,-0.143803 -0.790956,-0.301956 -0.862866,-0.345103 -0.0719,-0.04311 -0.834188,-0.230166 -0.834188,-0.230166 z m 12.015966,0.309255 c 0,0 -1.315934,0.64714 -1.373462,0.661529 -0.978151,0.571667 -1.908691,1.47447 -2.703754,2.279487 -0.05752,0.04311 -0.791022,0.201342 -0.791022,0.201342 l -0.04037,0.01427 1.646721,0.949198 -0.733445,0.02872 -1.436698,-0.23468 c 1.706391,1.07954 1.096341,1.498938 1.750329,2.859357 0.387431,1.524072 1.953842,1.720584 2.703755,1.459796 0.493825,-0.384189 1.033349,-0.582087 1.64672,-0.949196 0.422047,-0.138886 0.850505,-0.268472 0.898861,-0.949197 0.607161,-0.200889 0.910718,-0.759904 0.179752,-0.870113 0.16709,-0.415097 0.03908,-0.454561 0.01427,-0.6256 0.250798,-0.167928 0.492027,-0.350152 0.704691,-0.575273 0.107851,-0.83648 -0.08629,-1.014312 -0.201342,-1.308785 -0.03665,-0.09376 -0.215749,-1.26554 -0.215749,-1.26554 -0.167067,-0.484409 -0.456242,-0.857776 -0.834115,-1.150544 -0.169604,-0.388019 -0.645686,-0.498796 -1.215286,-0.524931 z m -9.427218,2.912267 1.567632,0.330836 -1.682714,-0.215748 -0.832004,0.02437 z m 3.574316,1.182082 0.305105,2.440678 c 0.157122,2.71101 -0.488169,-1.532182 -0.732235,-2.298276 l -0.102709,-0.36369 c 0.06769,0.08916 -0.03722,0.318866 0.05688,0.497339 0.221457,0.419882 -0.379008,1.099769 -0.772231,2.253684 -0.868143,3.161507 2.226703,3.401356 2.661343,3.522245 0.212826,0.0891 0.338135,0.01563 0.417018,-0.14387 0,0 0.129463,-0.913259 0.143825,-1.042697 0.01427,-0.12944 0.09899,-0.880327 0.158164,-0.884448 0.191261,-0.01337 -0.333547,-1.676867 -0.417018,-1.754552 -1.022655,-0.951844 -1.285443,-1.230355 -1.714168,-2.337967 z"
       sodipodi:nodetypes="ccccccccccccccccccccccscccsccscsccccssccscscccccccsssscccccccccccccsssccccccccccccccccsccccccccccccscccssscc" /><path
       style="fill:#ffffff;stroke:#32120e;stroke-width:0.226532;stroke-linecap:square;stroke-dasharray:none;stroke-opacity:1"
       d="m 41.664027,36.43711 c 0,0 0.474385,-0.829688 1.783336,-0.316399 0.464197,0.182018 -0.25887,-0.481785 -0.115033,-0.553693 0.143802,-0.0719 0.211218,0.360951 0.747851,0.01427 0.345162,-0.222907 0.294827,-0.740657 0.294827,-0.740657 0.324246,0.397994 0.712456,-0.396956 0.719087,-0.532123"
       id="path7"
       sodipodi:nodetypes="cssscc" /><ellipse
       style="fill:#f9f9f9;fill-opacity:1;stroke:none;stroke-width:0.906127;stroke-linecap:round;stroke-dasharray:none;stroke-opacity:1"
       id="path17"
       cx="41.343903"
       cy="29.532961"
       rx="0.39738676"
       ry="0.34161314" /><path
       style="fill:none;fill-opacity:1;stroke:#32120e;stroke-width:0.974087;stroke-linecap:round;stroke-dasharray:none;stroke-opacity:1"
       d="M 41.690192,29.115678 C 38.589728,24.22021 38.615383,10.66036 44.68747,17.915321 c 6.073433,7.25657 5.126924,10.174972 5.126924,10.174972"
       id="path16"
       sodipodi:nodetypes="csc" /><path
       style="fill:#91c1cd;fill-opacity:1;stroke:#32120e;stroke-width:0.906127;stroke-linecap:round;stroke-linejoin:round;stroke-dasharray:none;stroke-opacity:1"
       d="m 58.808109,43.232332 c 0,0 0.649662,4.328775 1.299328,6.817839 0.649666,2.489061 0.649666,2.59728 0.649666,2.59728 -5.521763,3.058423 -10.635759,3.062655 -16.566444,3.35479 -4.114535,0.216474 -8.445633,-0.973977 -8.445633,-0.973977 0,0 0,-8.332968 0.108282,-12.661743 0.108283,-4.328824 -4.006264,-13.852138 -4.006264,-13.852138 0,0 6.713199,-0.649349 9.203577,-1.731564 2.490379,-1.08222 16.349881,-1.29863 16.349881,-1.29863 0,0 0.54139,13.202853 0.757946,14.068635 0.216541,0.865716 0.650359,3.687652 0.650359,3.687652"
       id="path28"
       sodipodi:nodetypes="cscccscscsc" /><path
       style="fill:none;fill-opacity:1;stroke:#32120e;stroke-width:0.974087;stroke-linecap:round;stroke-dasharray:none;stroke-opacity:1"
       d="m 41.562018,29.184692 c -3.100463,-4.895467 -3.074809,-18.455317 2.997279,-11.200356 6.073432,7.256569 5.126923,10.174972 5.126923,10.174972"
       id="path37"
       sodipodi:nodetypes="csc" /><ellipse
       style="fill:none;fill-opacity:1;stroke:#32120e;stroke-width:0.906127;stroke-linecap:round;stroke-dasharray:none;stroke-opacity:1"
       id="ellipse37"
       cx="41.544575"
       cy="29.17831"
       rx="0.3137264"
       ry="0.34161314" /><ellipse
       style="fill:none;fill-opacity:1;stroke:#32120e;stroke-width:0.906127;stroke-linecap:round;stroke-dasharray:none;stroke-opacity:1"
       id="ellipse38"
       cx="49.408649"
       cy="28.11861"
       rx="0.3137264"
       ry="0.34161314" /><path
       id="path38"
       style="fill:#32120e;fill-opacity:1;stroke:none;stroke-width:2.26532;stroke-linecap:square"
       d="m 46.838643,33.189768 c -0.404074,0.155106 -0.614243,0.407138 -0.790944,0.675939 l -0.388344,-0.158255 c -0.418395,-0.03008 -0.594888,0.181678 -0.834112,0.330761 l -0.129418,-0.71903 c -0.995009,0.293279 -1.862254,1.31062 -2.74692,2.229157 -0.27486,0.353761 -0.873269,0.583081 -0.704767,1.107373 -0.03511,0.769014 0.125702,1.432639 0.588624,1.933478 l 1.850779,0.833891 c 1.435063,0.220755 1.721616,1.040719 2.339031,1.688067 l 0.08685,0.05362 c 0.841887,-0.11578 0.569251,-1.396729 0.644018,-2.314504 0.515138,0.939554 1.094663,3.424062 1.506353,1.880807 l 0.03137,-0.0772 0.4746,-1.927147 c 0,0 1.03752,-0.966038 1.319802,-1.241546 -0.189517,0.234067 -0.557534,0.810114 -0.557534,0.810114 l -0.359512,0.834117 -0.408116,1.700373 c 0.230911,-0.219985 0.531578,-0.483516 0.892674,-0.636097 -0.07007,0.466871 -0.188973,0.883449 -0.349779,1.162011 l 1.116426,-0.816831 c 0,0 1.272766,-0.409947 1.330294,-0.453095 0.05754,-0.04311 0.999515,-0.625549 1.330297,-0.870029 0.618588,-0.530696 1.305847,-1.423884 1.193702,-2.243576 L 53.713086,37.1591 c -0.01994,0.06014 -1.179157,0.100263 -1.351876,-0.158164 -0.143848,-0.215228 -0.949198,-0.244509 -0.949198,-0.244509 0,0 -1.06237,0.531563 -1.211813,0.619868 0.0043,-0.0045 0.04517,-0.04236 0.04694,-0.0446 0.05754,-0.0719 0.172595,-1.596378 0.172595,-1.596378 0.162649,-0.08132 -0.287542,-1.395094 -0.517766,-1.423798 -0.131592,-0.01654 -0.848525,-0.431434 -0.848525,-0.431434 l -1.279961,-0.330761 z m -5.148664,5.79577 c 0,0 -0.73348,0.302064 -0.920441,0.359597 -0.18698,0.05752 -0.704657,0.575225 -0.891618,0.661522 -0.186979,0.08631 -0.4746,0.647186 -0.4746,0.647186 l 0.503354,0.129417 c 0,0 -0.388308,0.31642 -0.575271,0.31642 -0.186979,0 0.04315,0.517761 0.04315,0.517761 0,0 1.4669,0.560866 1.81206,0.733444 0.238889,0.119428 0.956086,0.100195 1.385989,0.07756 l -1.457906,0.742202 -1.294374,1.682639 0.287673,0.719103 0.373929,0.575266 -0.1151,0.359515 -0.575269,0.115101 c 0,0 -0.287634,0.158164 -0.575266,0.388266 -0.287636,0.230114 -0.02875,0.532187 -0.02875,0.604093 0,0.0719 0.733487,0.906002 0.819776,0.99229 0.08631,0.08631 0.834139,0.302038 1.049866,0.31642 0.215726,0.01427 1.280713,0.38087 1.280713,0.38087 0.462394,0.06058 1.07876,-0.158096 1.811384,-0.610958 0.488437,-0.02603 1.057415,-0.454822 1.625135,-0.877279 1.007592,-2.198386 0.794788,-4.761159 1.190154,-4.694515 l -0.08785,-0.07811 -1.313541,1.053409 -1.689581,1.403948 c 0.697265,-0.994123 1.700454,-1.927026 2.055362,-2.989612 -0.25795,-0.445837 -0.640612,-0.865014 -1.431872,-1.196577 0.822651,0.03867 1.70138,0.245717 2.639081,0.629527 l -0.984912,-0.643468 -0.06051,-0.0427 -0.474598,-0.215658 c 0,0 -0.647115,-0.302026 -0.920367,-0.546515 -0.273254,-0.244485 -1.107446,-0.791042 -1.308787,-0.934856 -0.201342,-0.143803 -0.790956,-0.301956 -0.862867,-0.345103 -0.0719,-0.04311 -0.834187,-0.230166 -0.834187,-0.230166 z m 12.015966,0.309255 c 0,0 -1.315935,0.64714 -1.373462,0.661529 -0.978151,0.571667 -1.908691,1.47447 -2.703755,2.279487 -0.05752,0.04311 -0.791021,0.201342 -0.791021,0.201342 l -0.04037,0.01427 1.64672,0.949198 -0.733444,0.02872 -1.436698,-0.23468 c 1.706391,1.07954 1.096341,1.498938 1.750329,2.859357 0.387431,1.524072 1.953841,1.720584 2.703754,1.459796 0.493826,-0.384189 1.03335,-0.582087 1.646721,-0.949196 0.422047,-0.138886 0.850505,-0.268472 0.89886,-0.949197 0.607162,-0.200889 0.910719,-0.759904 0.179753,-0.870113 0.16709,-0.415097 0.03908,-0.454561 0.01427,-0.6256 0.250798,-0.167928 0.492027,-0.350152 0.70469,-0.575273 0.107852,-0.83648 -0.08629,-1.014312 -0.201341,-1.308785 -0.03665,-0.09376 -0.215749,-1.26554 -0.215749,-1.26554 -0.167067,-0.484409 -0.456242,-0.857776 -0.834115,-1.150544 -0.169604,-0.388019 -0.645686,-0.498796 -1.215286,-0.524931 z m -9.427217,2.912267 1.567632,0.330836 -1.682715,-0.215748 -0.832003,0.02437 z m 3.574315,1.182082 0.305104,2.440678 c 0.157123,2.71101 -0.488169,-1.532182 -0.732234,-2.298276 l -0.10271,-0.36369 c 0.06769,0.08916 -0.03722,0.318866 0.05688,0.497339 0.221458,0.419882 -0.379008,1.099769 -0.772231,2.253684 -0.868141,3.161507 2.226704,3.401356 2.661344,3.522245 0.212826,0.0891 0.338134,0.01563 0.417017,-0.14387 0,0 0.129463,-0.913259 0.143825,-1.042697 0.01427,-0.12944 0.099,-0.880327 0.158165,-0.884448 0.191261,-0.01337 -0.333548,-1.676867 -0.417018,-1.754552 C 48.54853,44.663711 48.285742,44.3852 47.857017,43.277588 Z"
       sodipodi:nodetypes="ccccccccccccccccccccccscccsccscsccccssccscscccccccsssscccccccccccccsssccccccccccccccccsccccccccccccscccssscc" /><path
       style="fill:none;stroke:#ffffff;stroke-width:0.226532;stroke-linecap:square;stroke-dasharray:none;stroke-opacity:1"
       d="m 41.664028,36.368092 c 0,0 0.474385,-0.829688 1.783335,-0.316399 0.464198,0.182018 -0.258869,-0.481785 -0.115033,-0.553693 0.143803,-0.0719 0.211219,0.360951 0.747852,0.01427 0.345162,-0.222907 0.294827,-0.740657 0.294827,-0.740657 0.324246,0.397994 0.712456,-0.396956 0.719086,-0.532123"
       id="path39"
       sodipodi:nodetypes="cssscc" /></g></svg>
